<?xml version="1.0" standalone="no"?><!DOCTYPE svg PUBLIC "-//W3C//DTD SVG 1.1//EN" "http://www.w3.org/Graphics/SVG/1.1/DTD/svg11.dtd"><svg t="1669094139640" class="icon" viewBox="0 0 1024 1024" version="1.1" xmlns="http://www.w3.org/2000/svg" p-id="1739" xmlns:xlink="http://www.w3.org/1999/xlink" width="128" height="128"><path d="M378.94826667 477.52533333l-204.8 0c-56.45653333 0-102.4-45.94346667-102.4-102.4l0-204.8c0-56.45653333 45.94346667-102.4 102.4-102.4l204.8 0c56.45653333 0 102.4 45.94346667 102.4 102.4l0 204.8C481.34826667 431.616 435.4048 477.52533333 378.94826667 477.52533333zM174.14826667 136.192c-18.80746667 0-34.13333333 15.32586667-34.13333334 34.13333333l0 204.8c0 18.80746667 15.32586667 34.13333333 34.13333334 34.13333334l204.8 0c18.80746667 0 34.13333333-15.32586667 34.13333333-34.13333334l0-204.8c0-18.80746667-15.32586667-34.13333333-34.13333333-34.13333333L174.14826667 136.192z" p-id="1740"></path><path d="M378.94826667 955.392l-204.8 0c-56.45653333 0-102.4-45.94346667-102.4-102.4l0-204.8c0-56.45653333 45.94346667-102.4 102.4-102.4l204.8 0c56.45653333 0 102.4 45.94346667 102.4 102.4l0 204.8C481.34826667 909.48266667 435.4048 955.392 378.94826667 955.392zM174.14826667 614.05866667c-18.80746667 0-34.13333333 15.29173333-34.13333334 34.13333333l0 204.8c0 18.8416 15.32586667 34.13333333 34.13333334 34.13333333l204.8 0c18.80746667 0 34.13333333-15.29173333 34.13333333-34.13333333l0-204.8c0-18.8416-15.32586667-34.13333333-34.13333333-34.13333333L174.14826667 614.05866667z" p-id="1741"></path><path d="M853.46986667 477.52533333l-204.8 0c-56.45653333 0-102.4-45.94346667-102.4-102.4l0-204.8c0-56.45653333 45.94346667-102.4 102.4-102.4l204.8 0c56.45653333 0 102.4 45.94346667 102.4 102.4l0 204.8C955.86986667 431.616 909.9264 477.52533333 853.46986667 477.52533333zM648.66986667 136.192c-18.8416 0-34.13333333 15.32586667-34.13333334 34.13333333l0 204.8c0 18.80746667 15.29173333 34.13333333 34.13333334 34.13333334l204.8 0c18.8416 0 34.13333333-15.32586667 34.13333333-34.13333334l0-204.8c0-18.80746667-15.29173333-34.13333333-34.13333333-34.13333333L648.66986667 136.192z" p-id="1742"></path><path d="M853.46986667 955.392l-204.8 0c-56.45653333 0-102.4-45.94346667-102.4-102.4l0-204.8c0-56.45653333 45.94346667-102.4 102.4-102.4l204.8 0c56.45653333 0 102.4 45.94346667 102.4 102.4l0 204.8C955.86986667 909.48266667 909.9264 955.392 853.46986667 955.392zM648.66986667 614.05866667c-18.8416 0-34.13333333 15.29173333-34.13333334 34.13333333l0 204.8c0 18.8416 15.29173333 34.13333333 34.13333334 34.13333333l204.8 0c18.8416 0 34.13333333-15.29173333 34.13333333-34.13333333l0-204.8c0-18.8416-15.29173333-34.13333333-34.13333333-34.13333333L648.66986667 614.05866667z" p-id="1743"></path></svg>