<?xml version="1.0" standalone="no"?><!DOCTYPE svg PUBLIC "-//W3C//DTD SVG 1.1//EN" "http://www.w3.org/Graphics/SVG/1.1/DTD/svg11.dtd"><svg t="1670934941802" class="icon" viewBox="0 0 1127 1024" version="1.1" xmlns="http://www.w3.org/2000/svg" p-id="2144" xmlns:xlink="http://www.w3.org/1999/xlink" width="140.875" height="128"><path d="M174.5 90.125l759.375 0 0 42.1875-759.375 0 0-42.1875Z" p-id="2145"></path><path d="M132.3125 174.5l843.75 0 0 42.1875-843.75 0 0-42.1875Z" p-id="2146"></path><path d="M90.125 264.3171875l0 664.115625C90.125 931.428125 92.7828125 933.875 96.03124999 933.875l916.27031251 0c3.290625 0 5.90625001-2.446875 5.90625-5.4421875L1018.2078125 264.3171875C1018.25 261.321875 1015.5921875 258.875 1012.3015625 258.875L96.03124999 258.875C92.7828125 258.875 90.125 261.321875 90.125 264.3171875zM132.3125 301.0625l843.75 0 0 590.625L132.3125 891.6875 132.3125 301.0625z" p-id="2147"></path></svg>