<?xml version="1.0" standalone="no"?><!DOCTYPE svg PUBLIC "-//W3C//DTD SVG 1.1//EN" "http://www.w3.org/Graphics/SVG/1.1/DTD/svg11.dtd"><svg t="1668593276490" class="icon" viewBox="0 0 1024 1024" version="1.1" xmlns="http://www.w3.org/2000/svg" p-id="992" xmlns:xlink="http://www.w3.org/1999/xlink" width="64" height="64"><path d="M433.25 721.99999971L433.25 721.99999971 433.25 721.99999971zM512 62C264.5 62 62 264.5 62 512s202.5 450 450 450 450-202.5 450-450S759.5 62 512 62zM512 905.75C294.49999971 905.75 118.25 729.50000029 118.25 512S294.49999971 118.25 512 118.25 905.75 294.49999971 905.75 512 729.50000029 905.75 512 905.75zM671.0975 310.46900029l45.077625 45.077625-360.621 360.621-45.077625-45.077625 360.621-360.621ZM310.46900029 352.9025l45.077625-45.077625 360.621 360.621-45.077625 45.077625-360.621-360.621Z" p-id="993"></path></svg>