<?xml version="1.0" standalone="no"?><!DOCTYPE svg PUBLIC "-//W3C//DTD SVG 1.1//EN" "http://www.w3.org/Graphics/SVG/1.1/DTD/svg11.dtd"><svg t="1668668523687" class="icon" viewBox="0 0 1024 1024" version="1.1" xmlns="http://www.w3.org/2000/svg" p-id="1219" xmlns:xlink="http://www.w3.org/1999/xlink" width="64" height="64"><path d="M923.9890625 337.71025391c-22.66611328-53.58867188-55.10917969-101.71142578-96.42744141-143.0296875-41.31914062-41.31826172-89.44101563-73.76132812-143.0296875-96.42744141C629.03603516 74.78105469 570.10097655 62.87890625 509.36328125 62.87890625c-1.97050781 0-3.9375 0.01318359-5.90185547 0.03779297-14.56083984 0.18544922-26.21425781 12.13945313-26.02880859 26.70117187 0.18369141 14.44746094 11.95224609 26.03144531 26.35839844 26.03144532l0.34277343-0.00175782c1.74023438-0.02285156 3.48310547-0.03427734 5.22949219-0.03427734 53.64228516 0 105.665625 10.50029297 154.62597656 31.20820312 47.30273438 20.00742187 89.79082031 48.65537109 126.28388672 85.1475586s65.14013673 78.98027344 85.1484375 126.28388672C896.12949219 407.21328125 906.62890625 459.23662109 906.62890625 512.87890625c0 14.56171875 11.80546875 26.3671875 26.3671875 26.3671875s26.3671875-11.80546875 26.3671875-26.3671875c0-60.73769531-11.90126953-119.67363281-35.37421875-175.16865234z" p-id="1220"></path></svg>