<?xml version="1.0" standalone="no"?><!DOCTYPE svg PUBLIC "-//W3C//DTD SVG 1.1//EN" "http://www.w3.org/Graphics/SVG/1.1/DTD/svg11.dtd"><svg t="1669094151379" class="icon" viewBox="0 0 1024 1024" version="1.1" xmlns="http://www.w3.org/2000/svg" p-id="1896" xmlns:xlink="http://www.w3.org/1999/xlink" width="128" height="128"><path d="M887.00000029 811.99999971h-750.00000058C95.00000029 811.99999971 62 779.00000029 62 737v-450C62 244.99999971 95.00000029 212.00000029 136.99999971 212.00000029h750.00000058C928.99999971 212.00000029 962 244.99999971 962 287v450c0 42.00000029-33.00000029 74.99999971-74.99999971 74.99999971zM136.99999971 242C113.00000029 242 91.99999971 262.99999971 91.99999971 287v450c0 24.00000029 20.99999971 45 45 45h750.00000058c24.00000029 0 45-20.99999971 45-45v-450c0-24.00000029-20.99999971-45-45-45h-750.00000058z" fill="" p-id="1897"></path><path d="M503 541.99999971c-20.99999971 0-45-6.00000029-60.00000029-18L158.00000029 329.00000029c-6.00000029-2.99999971-9-15.00000029-3.00000058-21.00000058 2.99999971-6.00000029 11.99999971-9 21.00000058-2.99999971l284.99999942 195.00000029c24.00000029 18 63 18 87.00000029 0l299.99999971-195.00000029c6.00000029-6.00000029 15.00000029-2.99999971 21.00000058 2.99999971s2.99999971 15.00000029-3.00000058 21.00000058l-299.99999971 194.99999942c-18 11.99999971-38.99999971 18-63 18zM167.00000029 721.99999971c-2.99999971 0-9-2.99999971-12.00000058-5.99999942-6.00000029-6.00000029-6.00000029-15.00000029 3.00000058-21.00000058l209.99999971-180c6.00000029-6.00000029 15.00000029-6.00000029 20.99999971 3.00000058 6.00000029 6.00000029 6.00000029 15.00000029-2.99999971 20.99999971l-209.99999971 180c-2.99999971 2.99999971-6.00000029 2.99999971-9 2.99999971zM856.99999971 721.99999971c-2.99999971 0-6.00000029 0-9-2.99999971l-209.99999971-180c-6.00000029-6.00000029-6.00000029-15.00000029-2.99999971-20.99999971s15.00000029-6.00000029 20.99999971-3.00000058l209.99999971 180c6.00000029 6.00000029 6.00000029 15.00000029 3.00000058 21.00000058-2.99999971 2.99999971-9 6.00000029-12.00000058 5.99999942z" fill="" p-id="1898"></path></svg>