<?xml version="1.0" standalone="no"?><!DOCTYPE svg PUBLIC "-//W3C//DTD SVG 1.1//EN" "http://www.w3.org/Graphics/SVG/1.1/DTD/svg11.dtd"><svg t="1670343568614" class="icon" viewBox="0 0 1024 1024" version="1.1" xmlns="http://www.w3.org/2000/svg" p-id="1843" xmlns:xlink="http://www.w3.org/1999/xlink" width="128" height="128"><path d="M332.6 572.98333332h582c24.7 0 44.8 20 44.8 44.8 0 24.7-20 44.8-44.8 44.8h-582c-24.7 0-44.8-20-44.8-44.8 0-24.7 20-44.8 44.8-44.8zM108.7 572.98333332h44.8c24.7 0 44.8 20 44.8 44.8 0 24.7-20 44.8-44.8 44.8h-44.8c-24.7 0-44.8-20-44.8-44.8 0.1-24.7 20.1-44.8 44.8-44.8zM108.7 841.58333332h805.8c24.7 0 44.8 20 44.8 44.79999999 0 24.7-20 44.8-44.8 44.80000001H108.7C84 931.18333332 64 911.08333332 64 886.38333331c0-24.7 20-44.8 44.7-44.79999999zM108.7 304.38333332h805.8c24.7 0 44.8 20 44.8 44.79999999 0 24.7-20 44.8-44.8 44.8H108.7c-24.7 0-44.8-20-44.8-44.8 0.1-24.7 20.1-44.8 44.8-44.79999999z" fill="" p-id="1844"></path></svg>