<?xml version="1.0" standalone="no"?><!DOCTYPE svg PUBLIC "-//W3C//DTD SVG 1.1//EN" "http://www.w3.org/Graphics/SVG/1.1/DTD/svg11.dtd"><svg t="1668592779124" class="icon" viewBox="0 0 1024 1024" version="1.1" xmlns="http://www.w3.org/2000/svg" p-id="1532" xmlns:xlink="http://www.w3.org/1999/xlink" width="64" height="64"><path d="M512 853.33333333c-188.2112 0-341.33333333-153.12213333-341.33333333-341.33333333S323.7888 170.66666667 512 170.66666667s341.33333333 153.12213333 341.33333333 341.33333333-153.12213333 341.33333333-341.33333333 341.33333333m0-750.93333333C286.13973333 102.4 102.4 286.13973333 102.4 512s183.73973333 409.6 409.6 409.6 409.6-183.73973333 409.6-409.6S737.86026667 102.4 512 102.4" p-id="1533"></path><path d="M626.21013333 423.56053333l-161.86026666 176.9472-66.2528-74.24a34.13333333 34.13333333 0 1 0-50.92693334 45.4656l91.40906667 102.4a34.13333333 34.13333333 0 0 0 25.25866667 11.40053334h0.2048c9.55733333 0 18.70506667-4.02773333 25.1904-11.09333334l187.35786666-204.8a34.13333333 34.13333333 0 0 0-50.3808-46.08" p-id="1534"></path></svg>